<?xml version="1.0" standalone="no"?>
<!DOCTYPE svg PUBLIC "-//W3C//DTD SVG 20010904//EN"
 "http://www.w3.org/TR/2001/REC-SVG-20010904/DTD/svg10.dtd">
<svg version="1.0" xmlns="http://www.w3.org/2000/svg"
 width="1231.000000pt" height="1230.000000pt" viewBox="0 0 1231.000000 1230.000000"
 preserveAspectRatio="xMidYMid meet">
<metadata>
Created by potrace 1.16, written by Peter Selinger 2001-2019
</metadata>
<g transform="translate(0.000000,1230.000000) scale(0.100000,-0.100000)"
fill="#000000" stroke="none">
<path d="M7342 9794 c-13 -9 -59 -88 -104 -177 -120 -241 -287 -508 -412 -661
l-24 -28 -78 30 c-549 208 -1148 245 -1656 102 -147 -41 -267 -89 -430 -172
-75 -38 -142 -67 -147 -63 -18 11 -125 155 -204 275 -88 135 -200 333 -268
475 -59 124 -90 145 -159 110 -25 -13 -34 -30 -64 -122 -143 -446 -163 -938
-55 -1379 l20 -82 -44 -68 c-188 -292 -318 -655 -378 -1054 -31 -211 -31 -641
0 -849 27 -176 85 -408 141 -561 172 -465 537 -997 1015 -1475 870 -870 2017
-1463 3376 -1745 l156 -33 39 19 c21 10 46 31 57 46 26 35 26 102 1 133 -11
12 -48 58 -83 101 -202 247 -395 621 -541 1050 -54 157 -110 344 -110 364 0 7
32 -22 71 -64 262 -281 601 -455 982 -506 110 -14 306 -13 337 3 34 17 70 74
70 111 0 36 -11 53 -103 167 -159 198 -286 539 -341 919 -56 388 -58 707 -6
1120 94 743 10 1348 -259 1884 -132 262 -272 462 -467 666 l-91 95 15 90 c23
139 23 585 -1 735 -40 251 -113 507 -154 539 -31 25 -70 27 -101 5z m-2548
-2064 c109 -28 190 -74 272 -155 121 -120 173 -235 181 -405 10 -186 -46 -330
-176 -460 -338 -337 -902 -178 -1021 286 -59 231 32 489 223 631 153 113 338
150 521 103z m1860 0 c113 -29 190 -73 276 -160 125 -124 180 -256 180 -430 0
-175 -55 -306 -180 -431 -130 -129 -283 -187 -464 -176 -219 14 -412 140 -506
331 -92 185 -91 367 0 554 74 150 233 277 397 316 86 21 206 19 297 -4z"/>
</g>
</svg>
